<svg xmlns="http://www.w3.org/2000/svg" viewBox="0 0 64 64">
  <defs>
    <linearGradient id="gold" x1="9" y1="6" x2="55" y2="58" gradientUnits="userSpaceOnUse">
      <stop stop-color="#FFF4CC"/>
      <stop offset=".48" stop-color="#E7C65F"/>
      <stop offset="1" stop-color="#A7771D"/>
    </linearGradient>
    <filter id="glow" x="-35%" y="-35%" width="170%" height="170%">
      <feDropShadow dx="0" dy="5" stdDeviation="4" flood-color="#D7B44A" flood-opacity=".35"/>
    </filter>
  </defs>
  <path fill="url(#gold)" filter="url(#glow)" d="M22 8h20a7 7 0 0 1 7 7v5h5a8 8 0 0 1 8 8v22a8 8 0 0 1-8 8H10a8 8 0 0 1-8-8V28a8 8 0 0 1 8-8h5v-5a7 7 0 0 1 7-7Zm1 12h18v-4H23v4Zm-13 8v6h17v-2a3 3 0 0 1 3-3h4a3 3 0 0 1 3 3v2h17v-6H10Zm27 14v2a3 3 0 0 1-3 3h-4a3 3 0 0 1-3-3v-2H10v8h44v-8H37Z"/>
</svg>
