<svg xmlns="http://www.w3.org/2000/svg" viewBox="0 0 64 64">
  <defs>
    <linearGradient id="gold" x1="8" y1="5" x2="56" y2="59" gradientUnits="userSpaceOnUse">
      <stop stop-color="#FFF5D0"/>
      <stop offset=".48" stop-color="#E7C660"/>
      <stop offset="1" stop-color="#A7771D"/>
    </linearGradient>
    <filter id="glow" x="-35%" y="-35%" width="170%" height="170%">
      <feDropShadow dx="0" dy="5" stdDeviation="4" flood-color="#D7B44A" flood-opacity=".35"/>
    </filter>
  </defs>
  <path fill="url(#gold)" filter="url(#glow)" d="M32 4a27 27 0 0 1 20.4 44.7L58 54.3a4 4 0 0 1-5.7 5.7l-5.7-5.7A27 27 0 1 1 32 4Zm0 8c-2.6 0-5.3 5.8-6.1 15h12.2C37.3 17.8 34.6 12 32 12Zm-19.2 15h9.1c.3-4.2 1-8.1 2.1-11.3A19.2 19.2 0 0 0 12.8 27Zm9.1 10h-9.1A19.2 19.2 0 0 0 24 48.3 43.8 43.8 0 0 1 21.9 37Zm10.1 15c2.6 0 5.3-5.8 6.1-15H25.9c.8 9.2 3.5 15 6.1 15Zm9.9-25h9.3A19.2 19.2 0 0 0 40 15.7c1.1 3.2 1.8 7.1 1.9 11.3Z"/>
</svg>
